<?xml version="1.0" encoding="utf-8"?>
<!-- Generator: Adobe Illustrator 24.0.2, SVG Export Plug-In . SVG Version: 6.00 Build 0)  -->
<svg version="1.1" id="Layer_1" xmlns="http://www.w3.org/2000/svg" xmlns:xlink="http://www.w3.org/1999/xlink" x="0px" y="0px"
	 viewBox="0 0 200 200" style="enable-background:new 0 0 200 200;" xml:space="preserve">
<style type="text/css">
	.st0{fill:#224693;}
	.st1{enable-background:new    ;}
</style>
<path class="st0" d="M99.7,193.6c-3.9,0-7.9-1.1-11.4-3.3l-62-35.7c-7.1-3.8-11.4-11.5-10.9-19.6V63.7c-0.5-8.1,3.8-15.8,11-19.7
	L88.3,8.4c6.9-4.3,15.9-4.3,22.8,0l62,35.7c6.8,4.2,10.9,11.6,10.9,19.5v71.5c0,7.9-4.1,15.4-10.8,19.5l-62.1,35.8
	C107.6,192.5,103.7,193.6,99.7,193.6z M99.7,11.2c-2.9,0-5.8,0.8-8.3,2.4l-0.1,0.1l-62,35.6c-5.2,2.8-8.3,8.3-7.9,14.1v0.2v71.7
	c-0.4,5.8,2.7,11.3,7.8,14.1l62.2,35.8c5.1,3.2,11.5,3.2,16.6,0l0.1-0.1l62.1-35.7c4.9-3,7.9-8.5,7.9-14.3V63.7c0-5.8-3-11.3-8-14.4
	L108,13.5C105.5,12,102.6,11.2,99.7,11.2z"/>
<g class="st1">
	<path class="st0" d="M86.1,117.6l-5.9,5.9c-1,1-2.2,1.5-3.6,1.5h-20c-1.4,0-2.6-0.5-3.6-1.5l-6.1-6.1l5.7-5.8l4.8,4.8
		c0.3,0.3,0.6,0.4,1,0.4h16.3c0.4,0,0.7-0.1,1-0.4l2.8-2.8c0.3-0.3,0.4-0.6,0.4-1v-4.6c0-0.7-0.6-1.4-1.4-1.4l-25.8-3.4
		c-2.8-0.4-5-2.9-5-5.6V88c0-1.4,0.5-2.6,1.5-3.6l5.9-5.9c1-1,2.2-1.5,3.6-1.5h20c1.4,0,2.6,0.5,3.6,1.5l6.1,6.1l-5.7,5.8l-4.8-4.8
		c-0.3-0.3-0.6-0.4-1-0.4H59.8c-0.4,0-0.7,0.1-1,0.4L56,88.5c-0.3,0.3-0.4,0.6-0.4,1v4.6c0,0.7,0.6,1.4,1.3,1.4L82.7,99
		c2.8,0.4,5,2.9,5,5.6v9.4C87.6,115.3,87.1,116.6,86.1,117.6z"/>
	<path class="st0" d="M141.4,125V86.9L129.7,125h-8.9l-11.7-38.1V125h-8.4V77.1h13.2l11.3,37.1l11.3-37.1h13.2V125H141.4z"/>
</g>
</svg>
