<svg xmlns="http://www.w3.org/2000/svg" width="45.302" height="50.803" viewBox="0 0 45.302 50.803">
  <g id="Group_40" data-name="Group 40" transform="translate(-29.042 -38.197)">
    <path id="Path_2115" data-name="Path 2115" d="M383.419,472.007l-17.282-9.951a4.987,4.987,0,0,1-2.618-4.715v-19.9a4.984,4.984,0,0,1,2.618-4.712l17.282-9.951a5.2,5.2,0,0,1,5.5,0l17.284,9.951a5.494,5.494,0,0,1,2.618,4.712v19.9a5.5,5.5,0,0,1-2.618,4.715l-17.284,9.951a5.206,5.206,0,0,1-5.5,0" transform="translate(-334.477 -383.791)" fill="#fff"/>
    <g id="Group_37" data-name="Group 37" transform="translate(-49.356 -289.095)">
      <path id="Path_2145" data-name="Path 2145" d="M96.383,361.388a1.093,1.093,0,0,0,1.061,1.168,1.107,1.107,0,0,0,1.09-1.146V349.265a1.105,1.105,0,0,0-1.09-1.142,1.09,1.09,0,0,0-1.061,1.162Z" transform="translate(3.199 1.243)" fill="#00297a"/>
      <path id="Path_2146" data-name="Path 2146" d="M90.457,345.366a1.093,1.093,0,0,0-1.168,1.061,1.108,1.108,0,0,0,1.148,1.09h20.447a1.105,1.105,0,0,0,1.142-1.09,1.091,1.091,0,0,0-1.164-1.061Z" transform="translate(0 0)" fill="#00297a"/>
    </g>
  </g>
</svg>
