<svg xmlns="http://www.w3.org/2000/svg" width="22.737" height="18.433" viewBox="0 0 22.737 18.433">
  <g id="Group_37" data-name="Group 37" transform="translate(-89.289 -345.366)">
    <path id="Path_2145" data-name="Path 2145" d="M96.383,361.388a1.093,1.093,0,0,0,1.061,1.168,1.107,1.107,0,0,0,1.09-1.146V349.265a1.105,1.105,0,0,0-1.09-1.142,1.09,1.09,0,0,0-1.061,1.162Z" transform="translate(3.199 1.243)" fill="#00297a"/>
    <path id="Path_2146" data-name="Path 2146" d="M90.457,345.366a1.093,1.093,0,0,0-1.168,1.061,1.108,1.108,0,0,0,1.148,1.09h20.447a1.105,1.105,0,0,0,1.142-1.09,1.091,1.091,0,0,0-1.164-1.061Z" transform="translate(0 0)" fill="#00297a"/>
  </g>
</svg>




<?xml version="1.0" encoding="UTF-8"?>
<svg width="169px" height="189px" viewBox="0 0 169 189" version="1.1" xmlns="http://www.w3.org/2000/svg" xmlns:xlink="http://www.w3.org/1999/xlink">
    <!-- Generator: Sketch 64 (93537) - https://sketch.com -->
    <title>SVG Layer</title>
    <desc>Created with Sketch.</desc>
    <g id="Page-1" stroke="none" stroke-width="1" fill="none" fill-rule="evenodd">
        <g id="SVG-Layer" fill-rule="nonzero">
            <path d="M84.7,188.6 C80.8,188.6 76.8,187.5 73.3,185.3 L11.3,149.6 C4.2,145.8 -0.1,138.1 0.4,130 L0.4,58.7 C-0.1,50.6 4.2,42.9 11.4,39 L73.3,3.4 C80.2,-0.9 89.2,-0.9 96.1,3.4 L158.1,39.1 C164.9,43.3 169,50.7 169,58.6 L169,130.1 C169,138 164.9,145.5 158.2,149.6 L96.1,185.4 C92.6,187.5 88.7,188.6 84.7,188.6 Z M84.7,6.2 C81.8,6.2 78.9,7 76.4,8.6 L76.3,8.7 L14.3,44.3 C9.1,47.1 6,52.6 6.4,58.4 L6.4,58.6 L6.4,130.3 C6,136.1 9.1,141.6 14.2,144.4 L76.4,180.2 C81.5,183.4 87.9,183.4 93,180.2 L93.1,180.1 L155.2,144.4 C160.1,141.4 163.1,135.9 163.1,130.1 L163.1,58.7 C163.1,52.9 160.1,47.4 155.1,44.3 L93,8.5 C90.5,7 87.6,6.2 84.7,6.2 Z" id="Shape" fill="#224693"></path>
            <g id="Group_37" transform="translate(41.000000, 66.000000)" fill="#00297A">
                <path d="M38.3497327,64.8842632 C38.2733272,65.9947036 38.6512172,67.0883792 39.3959848,67.9122876 C40.1407525,68.7361961 41.1878744,69.2189579 42.2951179,69.2488947 C43.4014548,69.232514 44.4546498,68.7692546 45.2171993,67.9635852 C45.9797488,67.1579158 46.3874421,66.0776779 46.3483412,64.9664737 L46.3483412,19.5825263 C46.3854153,18.4732976 45.9765863,17.3957694 45.2140427,16.5929183 C44.4514991,15.7900672 43.3994468,15.329493 42.2951179,15.3150526 C41.1909407,15.342137 40.145584,15.8208726 39.4008328,16.6405307 C38.6560815,17.4601888 38.2764456,18.5497709 38.3497327,19.6572632 L38.3497327,64.8842632 Z" id="Path_2145"></path>
                <path d="M4.41793239,0.367684211 C3.31292656,0.290902886 2.22460366,0.670651488 1.40472752,1.41908204 C0.584851387,2.16751258 0.104452313,3.2197845 0.0746619497,4.33247368 C0.0919266492,5.44526108 0.554254431,6.50421099 1.35738336,7.27051411 C2.16051228,8.03681724 3.23681227,8.44594453 4.34356132,8.40563158 L80.3768239,8.40563158 C81.4806238,8.44288806 82.5528785,8.03204828 83.3518003,7.26575433 C84.1507221,6.49946037 84.6090422,5.44223392 84.6234119,4.33247368 C84.5955131,3.22183908 84.1177848,2.17075034 83.3007286,1.42233091 C82.4836724,0.673911478 81.3980655,0.29299296 80.2950157,0.367684211 L4.41793239,0.367684211 Z" id="Path_2146"></path>
            </g>
        </g>
    </g>
</svg>