<?xml version="1.0" encoding="utf-8"?>
<!-- Generator: Adobe Illustrator 24.0.2, SVG Export Plug-In . SVG Version: 6.00 Build 0)  -->
<svg version="1.1" id="Layer_1" xmlns="http://www.w3.org/2000/svg" xmlns:xlink="http://www.w3.org/1999/xlink" x="0px" y="0px"
	 viewBox="0 0 200 200" style="enable-background:new 0 0 200 200;" xml:space="preserve">
<style type="text/css">
	.st0{fill:#224693;}
	.st1{enable-background:new    ;}
</style>
<path class="st0" d="M99.7,193.6c-3.9,0-7.9-1.1-11.4-3.3l-62-35.7c-7.1-3.8-11.4-11.5-10.9-19.6V63.7c-0.5-8.1,3.8-15.8,11-19.7
	L88.3,8.4c6.9-4.3,15.9-4.3,22.8,0l62,35.7c6.8,4.2,10.9,11.6,10.9,19.5v71.5c0,7.9-4.1,15.4-10.8,19.5l-62.1,35.8
	C107.6,192.5,103.7,193.6,99.7,193.6z M99.7,11.2c-2.9,0-5.8,0.8-8.3,2.4l-0.1,0.1l-62,35.6c-5.2,2.8-8.3,8.3-7.9,14.1v0.2v71.7
	c-0.4,5.8,2.7,11.3,7.8,14.1l62.2,35.8c5.1,3.2,11.5,3.2,16.6,0l0.1-0.1l62.1-35.7c4.9-3,7.9-8.5,7.9-14.3V63.7c0-5.8-3-11.3-8-14.4
	L108,13.5C105.5,12,102.6,11.2,99.7,11.2z"/>
<g class="st1">
	<path class="st0" d="M71.6,85.2V125H63V85.2H49.1v-8.2h36.3v8.2H71.6z"/>
	<path class="st0" d="M136.2,125V86.9L124.5,125h-8.9l-11.7-38.1V125h-8.4V77.1h13.2l11.3,37.1l11.3-37.1h13.2V125H136.2z"/>
</g>
</svg>
