<svg xmlns="http://www.w3.org/2000/svg" width="238.256" height="51" viewBox="0 0 238.256 51">
  <g id="Group_38" data-name="Group 38" transform="translate(-187.813 -234.853)">
    <g id="Group_38-2" data-name="Group 38" transform="translate(248.702 251.813)">
      <path id="Path_2149" data-name="Path 2149" d="M317.44,270.588v17.4h-1.783v-17.4H309.7V268.8h13.689v1.783Z" transform="translate(-309.704 -268.805)" fill="#fff"/>
      <path id="Path_2150" data-name="Path 2150" d="M359.809,287.987l-5.291-8.369a.566.566,0,0,0-.489-.259h-5.464v8.628h-1.783V268.8h10.209a1.888,1.888,0,0,1,1.381.575l1.495,1.495a1.931,1.931,0,0,1,.6,1.438v3.566a1.974,1.974,0,0,1-.6,1.438l-1.467,1.467a1.887,1.887,0,0,1-1.409.575h-.69l5.579,8.628ZM358.688,272.4a.521.521,0,0,0-.173-.4l-1.237-1.236a.518.518,0,0,0-.4-.173h-8.311v6.988h8.283a.567.567,0,0,0,.4-.173l1.265-1.265a.518.518,0,0,0,.173-.4Z" transform="translate(-328.26 -268.805)" fill="#fff"/>
      <path id="Path_2151" data-name="Path 2151" d="M398.989,287.987l-2.1-5.494h-9.576l-2.071,5.494H383.46l7.3-19.182h2.819l7.247,19.182Zm-6.874-18.174L388,280.767h8.2Z" transform="translate(-346.616 -268.805)" fill="#fff"/>
      <path id="Path_2152" data-name="Path 2152" d="M438.69,287.987l-9-17.486v17.486h-1.783V268.8h2.933l9,17.485V268.8h1.783v19.182Z" transform="translate(-368.86 -268.805)" fill="#fff"/>
      <path id="Path_2153" data-name="Path 2153" d="M482.33,285.024l-2.358,2.358a1.974,1.974,0,0,1-1.437.6h-6.673a1.974,1.974,0,0,1-1.437-.6l-2.963-2.961,1.266-1.237,2.847,2.847a.52.52,0,0,0,.4.173h6.442a.523.523,0,0,0,.4-.173l2.157-2.157a.567.567,0,0,0,.173-.4v-2.905a.615.615,0,0,0-.547-.575l-11.359-1.409a2.024,2.024,0,0,1-1.783-2.013V273.2a1.977,1.977,0,0,1,.6-1.438l2.358-2.358a1.978,1.978,0,0,1,1.437-.6h6.673a1.978,1.978,0,0,1,1.437.6l2.963,2.962-1.265,1.236-2.847-2.845a.523.523,0,0,0-.4-.173h-6.442a.521.521,0,0,0-.4.173l-2.156,2.156a.565.565,0,0,0-.173.4v2.9a.591.591,0,0,0,.517.575l11.389,1.409a2.023,2.023,0,0,1,1.783,2.013v3.365A1.975,1.975,0,0,1,482.33,285.024Z" transform="translate(-388.657 -268.805)" fill="#fff"/>
      <path id="Path_2154" data-name="Path 2154" d="M512.311,279.273v8.714h-1.783V268.8h11.963v1.783H512.311v6.9h10.181v1.782Z" transform="translate(-410.21 -268.805)" fill="#fff"/>
      <path id="Path_2155" data-name="Path 2155" d="M559.023,285.024l-2.358,2.358a1.979,1.979,0,0,1-1.438.6h-6.672a1.975,1.975,0,0,1-1.438-.6l-2.358-2.358a1.981,1.981,0,0,1-.6-1.437V273.2a1.983,1.983,0,0,1,.6-1.438l2.358-2.358a1.98,1.98,0,0,1,1.438-.6h6.672a1.984,1.984,0,0,1,1.438.6l2.358,2.358a1.982,1.982,0,0,1,.6,1.438v10.383A1.98,1.98,0,0,1,559.023,285.024Zm-1.179-11.7a.566.566,0,0,0-.173-.4l-2.157-2.156a.518.518,0,0,0-.4-.173H548.67a.524.524,0,0,0-.4.173l-2.156,2.156a.563.563,0,0,0-.172.4v10.152a.564.564,0,0,0,.172.4l2.156,2.157a.523.523,0,0,0,.4.173h6.441a.518.518,0,0,0,.4-.173l2.157-2.157a.567.567,0,0,0,.173-.4Z" transform="translate(-427.039 -268.805)" fill="#fff"/>
      <path id="Path_2156" data-name="Path 2156" d="M601.053,287.987l-5.291-8.369a.566.566,0,0,0-.49-.259h-5.464v8.628h-1.782V268.8h10.209a1.888,1.888,0,0,1,1.381.575l1.495,1.495a1.933,1.933,0,0,1,.6,1.438v3.566a1.976,1.976,0,0,1-.6,1.438l-1.467,1.467a1.887,1.887,0,0,1-1.409.575h-.69l5.579,8.628Zm-1.12-15.587a.521.521,0,0,0-.173-.4l-1.237-1.236a.519.519,0,0,0-.4-.173h-8.311v6.988h8.283a.567.567,0,0,0,.4-.173l1.265-1.265a.518.518,0,0,0,.173-.4Z" transform="translate(-448.996 -268.805)" fill="#fff"/>
      <path id="Path_2157" data-name="Path 2157" d="M645.356,287.987V269.754L639.2,287.987h-1.725l-6.154-18.232v18.232H629.54V268.8h3.279l5.521,16.306,5.521-16.306h3.277v19.182Z" transform="translate(-469.772 -268.805)" fill="#fff"/>
    </g>
    <g id="Group_39" data-name="Group 39" transform="translate(187.813 234.853)">
      <path id="Path_2158" data-name="Path 2158" d="M207.792,285.065l-17.35-9.99a5.005,5.005,0,0,1-2.629-4.732V250.363a5.005,5.005,0,0,1,2.629-4.732l17.35-9.99a5.22,5.22,0,0,1,5.521,0l17.35,9.99a5.521,5.521,0,0,1,2.629,4.732v19.979a5.521,5.521,0,0,1-2.629,4.732l-17.35,9.99a5.22,5.22,0,0,1-5.521,0" transform="translate(-187.813 -234.853)" fill="#fff"/>
    </g>
    <path id="Path_2159" data-name="Path 2159" d="M231.236,290.6a1.141,1.141,0,0,0,1.106,1.219,1.156,1.156,0,0,0,1.137-1.2V277.954a1.153,1.153,0,0,0-1.137-1.192,1.138,1.138,0,0,0-1.106,1.214Z" transform="translate(-21.732 -20.974)" fill="#224595"/>
    <path id="Path_2160" data-name="Path 2160" d="M210.958,268.408a1.141,1.141,0,0,0-1.219,1.106,1.156,1.156,0,0,0,1.2,1.137h21.332a1.153,1.153,0,0,0,1.192-1.137,1.138,1.138,0,0,0-1.214-1.106Z" transform="translate(-10.973 -16.793)" fill="#224595"/>
  </g>
</svg>
